<?xml version="1.0" standalone="no"?><!DOCTYPE svg PUBLIC "-//W3C//DTD SVG 1.1//EN" "http://www.w3.org/Graphics/SVG/1.1/DTD/svg11.dtd"><svg t="1661063835820" class="icon" viewBox="0 0 1024 1024" version="1.1" xmlns="http://www.w3.org/2000/svg" p-id="4750" xmlns:xlink="http://www.w3.org/1999/xlink" width="200" height="200"><defs><style type="text/css"></style></defs><path d="M186.24 840.96A669.44 669.44 0 0 0 512 919.68a777.6 777.6 0 0 0 136.96-12.16 16 16 0 0 0-5.76-31.36 684.16 684.16 0 0 1-442.24-64 212.48 212.48 0 0 1-128-168.32A176 176 0 0 1 145.28 512v119.68a76.16 76.16 0 0 0 36.48 64l208.64 119.68a50.56 50.56 0 0 0 25.6 7.04 42.24 42.24 0 0 0 21.12-5.76 45.44 45.44 0 0 0 21.76-40.32v-352a67.84 67.84 0 0 0-5.12-23.68 758.4 758.4 0 0 1 88.32 0v85.12a76.16 76.16 0 0 0 36.48 64l209.28 120.96a50.56 50.56 0 0 0 25.6 7.04 42.88 42.88 0 0 0 21.12-5.76 46.08 46.08 0 0 0 21.76-40.32v-134.4a192 192 0 0 1 88.96 146.56A204.16 204.16 0 0 1 832 808.96v-74.88a16 16 0 0 0-32 0v113.28a16 16 0 0 0 16 16h112a16 16 0 0 0 0-32h-72.32a229.76 229.76 0 0 0 122.88-187.52 230.4 230.4 0 0 0-120.96-186.24v-179.2a76.8 76.8 0 0 0-36.48-64L613.12 94.72a45.44 45.44 0 0 0-46.08 0 46.08 46.08 0 0 0-22.4 40.96v232.32a806.4 806.4 0 0 0-108.16 0 64 64 0 0 0-11.52-9.6L214.4 240.64a45.44 45.44 0 0 0-46.08 0 46.08 46.08 0 0 0-21.76 40.96v192a217.6 217.6 0 0 0-101.12 172.16 242.56 242.56 0 0 0 140.8 195.2z m422.4-675.2l181.76 104.96a16.64 16.64 0 0 1 4.48 7.68v320L611.84 493.44a14.72 14.72 0 0 1-4.48-7.04zM209.92 311.68l181.76 104.96a16 16 0 0 1 4.48 7.68v320L213.12 640a14.72 14.72 0 0 1-4.48-7.04z" fill="#1296db" p-id="4751"></path></svg>